<svg width="1200" height="800" viewBox="0 0 1200 800" fill="none" xmlns="http://www.w3.org/2000/svg">
  <!-- Background - Transparent -->
  <rect width="1200" height="800" fill="transparent"/>
  
  <!-- Pharmacy Building -->
  <g transform="translate(200, 200)">
    <!-- Main Building -->
    <rect x="0" y="0" width="300" height="400" fill="#57BBB6" opacity="0.05"/>
    <rect x="20" y="20" width="260" height="360" fill="#376F6B" opacity="0.03"/>
    
    <!-- Windows -->
    <rect x="50" y="50" width="60" height="80" fill="#E8DCD4" opacity="0.15"/>
    <rect x="130" y="50" width="60" height="80" fill="#E8DCD4" opacity="0.15"/>
    <rect x="210" y="50" width="60" height="80" fill="#E8DCD4" opacity="0.15"/>
    
    <rect x="50" y="150" width="60" height="80" fill="#E8DCD4" opacity="0.15"/>
    <rect x="130" y="150" width="60" height="80" fill="#E8DCD4" opacity="0.15"/>
    <rect x="210" y="150" width="60" height="80" fill="#E8DCD4" opacity="0.15"/>
    
    <rect x="50" y="250" width="60" height="80" fill="#E8DCD4" opacity="0.15"/>
    <rect x="130" y="250" width="60" height="80" fill="#E8DCD4" opacity="0.15"/>
    <rect x="210" y="250" width="60" height="80" fill="#E8DCD4" opacity="0.15"/>
    
    <!-- Door -->
    <rect x="130" y="320" width="40" height="80" fill="#D5C6BC" opacity="0.2"/>
    
    <!-- Roof -->
    <path d="M0 0 L150 -50 L300 0" fill="#376F6B" opacity="0.05"/>
  </g>
  
  <!-- Team Collaboration -->
  <g transform="translate(600, 300)">
    <!-- People Silhouettes -->
    <g transform="translate(0, 0)">
      <circle cx="0" cy="0" r="25" fill="#57BBB6" opacity="0.3"/>
      <rect x="-20" y="25" width="40" height="60" fill="#376F6B" opacity="0.2"/>
      <rect x="-15" y="35" width="30" height="40" fill="#E8DCD4" opacity="0.3"/>
    </g>
    
    <g transform="translate(80, 20)">
      <circle cx="0" cy="0" r="22" fill="#57BBB6" opacity="0.3"/>
      <rect x="-18" y="22" width="36" height="55" fill="#376F6B" opacity="0.2"/>
      <rect x="-13" y="32" width="26" height="35" fill="#E8DCD4" opacity="0.3"/>
    </g>
    
    <g transform="translate(150, 0)">
      <circle cx="0" cy="0" r="28" fill="#57BBB6" opacity="0.3"/>
      <rect x="-22" y="28" width="44" height="65" fill="#376F6B" opacity="0.2"/>
      <rect x="-17" y="38" width="34" height="45" fill="#E8DCD4" opacity="0.3"/>
    </g>
    
    <!-- Collaboration Lines -->
    <line x1="25" y1="25" x2="55" y2="22" stroke="#57BBB6" stroke-width="2" opacity="0.2"/>
    <line x1="105" y1="42" x2="128" y2="28" stroke="#57BBB6" stroke-width="2" opacity="0.2"/>
  </g>
  
  <!-- Community Involvement -->
  <g transform="translate(800, 200)">
    <!-- Heart Symbol -->
    <path d="M0 20 C-15 0 -15 -15 0 -25 C15 -15 15 0 0 20" fill="#57BBB6" opacity="0.2"/>
    
    <!-- People Icons -->
    <g transform="translate(50, 0)">
      <circle cx="0" cy="0" r="15" fill="#376F6B" opacity="0.2"/>
      <rect x="-12" y="15" width="24" height="30" fill="#D5C6BC" opacity="0.2"/>
    </g>
    
    <g transform="translate(100, 0)">
      <circle cx="0" cy="0" r="15" fill="#376F6B" opacity="0.2"/>
      <rect x="-12" y="15" width="24" height="30" fill="#D5C6BC" opacity="0.2"/>
    </g>
    
    <g transform="translate(150, 0)">
      <circle cx="0" cy="0" r="15" fill="#376F6B" opacity="0.2"/>
      <rect x="-12" y="15" width="24" height="30" fill="#D5C6BC" opacity="0.2"/>
    </g>
  </g>
  
  <!-- Professional Development -->
  <g transform="translate(300, 650)">
    <!-- Graduation Cap -->
    <path d="M0 0 L40 -20 L80 0 L60 20 L20 20 Z" fill="#57BBB6" opacity="0.2"/>
    <rect x="35" y="20" width="10" height="30" fill="#376F6B" opacity="0.2"/>
    
    <!-- Certificate -->
    <rect x="100" y="0" width="80" height="60" fill="#E8DCD4" opacity="0.3"/>
    <rect x="110" y="10" width="60" height="40" fill="#D5C6BC" opacity="0.4"/>
    <line x1="110" y1="30" x2="170" y2="30" stroke="#376F6B" stroke-width="1" opacity="0.3"/>
    <line x1="110" y1="40" x2="170" y2="40" stroke="#376F6B" stroke-width="1" opacity="0.3"/>
  </g>
  
  <!-- Medical Equipment -->
  <g transform="translate(700, 600)">
    <!-- Microscope -->
    <rect x="0" y="0" width="60" height="40" rx="8" fill="#D5C6BC" opacity="0.3"/>
    <circle cx="30" cy="20" r="15" fill="#E8DCD4" opacity="0.4"/>
    <rect x="25" y="40" width="10" height="30" fill="#57BBB6" opacity="0.2"/>
  </g>
  
  <g transform="translate(800, 620)">
    <!-- Test Tubes -->
    <rect x="0" y="0" width="12" height="40" rx="6" fill="#57BBB6" opacity="0.3"/>
    <rect x="20" y="0" width="12" height="40" rx="6" fill="#376F6B" opacity="0.3"/>
    <rect x="40" y="0" width="12" height="40" rx="6" fill="#D5C6BC" opacity="0.3"/>
  </g>
  
  <!-- Abstract Elements -->
  <g transform="translate(150, 150)">
    <!-- Star Pattern -->
    <path d="M0 -10 L3 -3 L10 -3 L5 2 L8 10 L0 5 L-8 10 L-5 2 L-10 -3 L-3 -3 Z" fill="#57BBB6" opacity="0.1"/>
  </g>
  
  <g transform="translate(1050, 150)">
    <!-- Diamond Pattern -->
    <path d="M0 -15 L15 0 L0 15 L-15 0 Z" fill="#376F6B" opacity="0.1"/>
  </g>
  
  <!-- Connection Lines -->
  <g transform="translate(400, 400)">
    <line x1="0" y1="0" x2="100" y2="0" stroke="#57BBB6" stroke-width="1" opacity="0.1"/>
    <line x1="0" y1="0" x2="0" y2="100" stroke="#57BBB6" stroke-width="1" opacity="0.1"/>
  </g>
  
  <g transform="translate(800, 400)">
    <line x1="0" y1="0" x2="100" y2="0" stroke="#376F6B" stroke-width="1" opacity="0.1"/>
    <line x1="0" y1="0" x2="0" y2="100" stroke="#376F6B" stroke-width="1" opacity="0.1"/>
  </g>
  
  <!-- Subtle Background Circles -->
  <g transform="translate(100, 100)">
    <circle cx="0" cy="0" r="40" fill="#57BBB6" opacity="0.03"/>
  </g>
  
  <g transform="translate(1100, 100)">
    <circle cx="0" cy="0" r="50" fill="#D5C6BC" opacity="0.03"/>
  </g>
  
  <g transform="translate(100, 700)">
    <circle cx="0" cy="0" r="35" fill="#376F6B" opacity="0.03"/>
  </g>
  
  <g transform="translate(1100, 700)">
    <circle cx="0" cy="0" r="45" fill="#E8DCD4" opacity="0.03"/>
  </g>
</svg>
