<svg width="1200" height="800" viewBox="0 0 1200 800" fill="none" xmlns="http://www.w3.org/2000/svg">
  <!-- Background -->
  <rect width="1200" height="800" fill="#F8FAFC"/>
  
  <!-- Prescription Counter -->
  <rect x="200" y="300" width="400" height="200" fill="#D5C6BC" opacity="0.3"/>
  <rect x="220" y="320" width="360" height="160" fill="#E8DCD4" opacity="0.4"/>
  
  <!-- Counter Surface -->
  <rect x="200" y="300" width="400" height="20" fill="#57BBB6" opacity="0.2"/>
  
  <!-- Prescription Bottles -->
  <g transform="translate(250, 350)">
    <rect x="0" y="0" width="40" height="80" rx="6" fill="#57BBB6" opacity="0.3"/>
    <rect x="5" y="5" width="30" height="70" rx="4" fill="#E8DCD4" opacity="0.5"/>
    <rect x="8" y="12" width="24" height="56" fill="#376F6B" opacity="0.2"/>
  </g>
  
  <g transform="translate(320, 360)">
    <rect x="0" y="0" width="35" height="70" rx="5" fill="#57BBB6" opacity="0.3"/>
    <rect x="4" y="4" width="27" height="62" rx="3" fill="#E8DCD4" opacity="0.5"/>
    <rect x="7" y="10" width="21" height="50" fill="#376F6B" opacity="0.2"/>
  </g>
  
  <g transform="translate(390, 355)">
    <rect x="0" y="0" width="38" height="75" rx="5" fill="#57BBB6" opacity="0.3"/>
    <rect x="4" y="4" width="30" height="67" rx="3" fill="#E8DCD4" opacity="0.5"/>
    <rect x="7" y="10" width="24" height="55" fill="#376F6B" opacity="0.2"/>
  </g>
  
  <!-- Consultation Area -->
  <g transform="translate(700, 250)">
    <!-- Chair -->
    <rect x="0" y="0" width="80" height="100" rx="10" fill="#D5C6BC" opacity="0.4"/>
    <rect x="10" y="10" width="60" height="80" rx="8" fill="#E8DCD4" opacity="0.5"/>
    
    <!-- Table -->
    <rect x="100" y="60" width="120" height="60" rx="8" fill="#57BBB6" opacity="0.2"/>
    <rect x="110" y="70" width="100" height="40" rx="4" fill="#376F6B" opacity="0.15"/>
  </g>
  
  <!-- Medical Equipment -->
  <g transform="translate(800, 400)">
    <!-- Stethoscope -->
    <circle cx="0" cy="0" r="20" fill="none" stroke="#57BBB6" stroke-width="2" opacity="0.3"/>
    <path d="M-20 0 Q-40 -25 -60 0 Q-40 25 -20 0" fill="none" stroke="#57BBB6" stroke-width="1.5" opacity="0.3"/>
  </g>
  
  <g transform="translate(900, 420)">
    <!-- Blood Pressure Monitor -->
    <rect x="0" y="0" width="60" height="40" rx="6" fill="#D5C6BC" opacity="0.3"/>
    <rect x="5" y="5" width="50" height="30" rx="3" fill="#E8DCD4" opacity="0.4"/>
    <circle cx="30" cy="20" r="8" fill="#57BBB6" opacity="0.2"/>
  </g>
  
  <!-- Medication Storage -->
  <g transform="translate(300, 150)">
    <rect x="0" y="0" width="200" height="120" fill="#57BBB6" opacity="0.1"/>
    <rect x="10" y="10" width="180" height="100" fill="#376F6B" opacity="0.05"/>
    
    <!-- Shelves -->
    <line x1="10" y1="40" x2="190" y2="40" stroke="#57BBB6" stroke-width="1" opacity="0.2"/>
    <line x1="10" y1="80" x2="190" y2="80" stroke="#57BBB6" stroke-width="1" opacity="0.2"/>
    
    <!-- Small Bottles -->
    <g transform="translate(30, 20)">
      <rect x="0" y="0" width="15" height="25" rx="3" fill="#D5C6BC" opacity="0.3"/>
    </g>
    <g transform="translate(60, 20)">
      <rect x="0" y="0" width="15" height="25" rx="3" fill="#D5C6BC" opacity="0.3"/>
    </g>
    <g transform="translate(90, 20)">
      <rect x="0" y="0" width="15" height="25" rx="3" fill="#D5C6BC" opacity="0.3"/>
    </g>
    
    <g transform="translate(30, 50)">
      <rect x="0" y="0" width="15" height="25" rx="3" fill="#E8DCD4" opacity="0.3"/>
    </g>
    <g transform="translate(60, 50)">
      <rect x="0" y="0" width="15" height="25" rx="3" fill="#E8DCD4" opacity="0.3"/>
    </g>
    <g transform="translate(90, 50)">
      <rect x="0" y="0" width="15" height="25" rx="3" fill="#E8DCD4" opacity="0.3"/>
    </g>
    
    <g transform="translate(30, 90)">
      <rect x="0" y="0" width="15" height="25" rx="3" fill="#57BBB6" opacity="0.2"/>
    </g>
    <g transform="translate(60, 90)">
      <rect x="0" y="0" width="15" height="25" rx="3" fill="#57BBB6" opacity="0.2"/>
    </g>
    <g transform="translate(90, 90)">
      <rect x="0" y="0" width="15" height="25" rx="3" fill="#57BBB6" opacity="0.2"/>
    </g>
  </g>
  
  <!-- Professional Icons -->
  <g transform="translate(1000, 200)">
    <!-- Heart Beat -->
    <path d="M0 20 L10 10 L20 20 L30 5 L40 20 L50 10 L60 20" fill="none" stroke="#57BBB6" stroke-width="2" opacity="0.3"/>
  </g>
  
  <g transform="translate(1100, 300)">
    <!-- Shield -->
    <path d="M0 20 L20 0 L40 20 L30 40 L10 40 Z" fill="#376F6B" opacity="0.2"/>
  </g>
  
  <!-- Abstract Medical Patterns -->
  <g transform="translate(150, 600)">
    <!-- Cross Pattern -->
    <rect x="-15" y="-15" width="30" height="30" fill="none" stroke="#57BBB6" stroke-width="1" opacity="0.1"/>
    <rect x="-5" y="-15" width="10" height="30" fill="#57BBB6" opacity="0.1"/>
    <rect x="-15" y="-5" width="30" height="10" fill="#57BBB6" opacity="0.1"/>
  </g>
  
  <g transform="translate(1050, 600)">
    <!-- Plus Pattern -->
    <rect x="-10" y="-2" width="20" height="4" fill="#376F6B" opacity="0.1"/>
    <rect x="-2" y="-10" width="4" height="20" fill="#376F6B" opacity="0.1"/>
  </g>
  
  <!-- Subtle Background Elements -->
  <g transform="translate(200, 100)">
    <circle cx="0" cy="0" r="25" fill="#57BBB6" opacity="0.05"/>
  </g>
  
  <g transform="translate(1000, 100)">
    <circle cx="0" cy="0" r="30" fill="#D5C6BC" opacity="0.05"/>
  </g>
  
  <g transform="translate(150, 700)">
    <circle cx="0" cy="0" r="20" fill="#376F6B" opacity="0.05"/>
  </g>
  
  <g transform="translate(1100, 700)">
    <circle cx="0" cy="0" r="35" fill="#E8DCD4" opacity="0.05"/>
  </g>
</svg>
