<svg width="1200" height="800" viewBox="0 0 1200 800" fill="none" xmlns="http://www.w3.org/2000/svg">
  <!-- Background -->
  <rect width="1200" height="800" fill="#F8FAFC"/>
  
  <!-- Product Shelves -->
  <g transform="translate(200, 200)">
    <!-- Main Shelf Unit -->
    <rect x="0" y="0" width="400" height="300" fill="#D5C6BC" opacity="0.3"/>
    <rect x="20" y="20" width="360" height="260" fill="#E8DCD4" opacity="0.4"/>
    
    <!-- Shelf Dividers -->
    <line x1="20" y1="100" x2="380" y2="100" stroke="#57BBB6" stroke-width="2" opacity="0.2"/>
    <line x1="20" y1="180" x2="380" y2="180" stroke="#57BBB6" stroke-width="2" opacity="0.2"/>
    
    <!-- Product Bottles Row 1 -->
    <g transform="translate(40, 30)">
      <rect x="0" y="0" width="25" height="50" rx="4" fill="#57BBB6" opacity="0.3"/>
      <rect x="2" y="2" width="21" height="46" rx="3" fill="#E8DCD4" opacity="0.4"/>
    </g>
    <g transform="translate(80, 30)">
      <rect x="0" y="0" width="25" height="50" rx="4" fill="#376F6B" opacity="0.3"/>
      <rect x="2" y="2" width="21" height="46" rx="3" fill="#D5C6BC" opacity="0.4"/>
    </g>
    <g transform="translate(120, 30)">
      <rect x="0" y="0" width="25" height="50" rx="4" fill="#57BBB6" opacity="0.3"/>
      <rect x="2" y="2" width="21" height="46" rx="3" fill="#E8DCD4" opacity="0.4"/>
    </g>
    <g transform="translate(160, 30)">
      <rect x="0" y="0" width="25" height="50" rx="4" fill="#376F6B" opacity="0.3"/>
      <rect x="2" y="2" width="21" height="46" rx="3" fill="#D5C6BC" opacity="0.4"/>
    </g>
    <g transform="translate(200, 30)">
      <rect x="0" y="0" width="25" height="50" rx="4" fill="#57BBB6" opacity="0.3"/>
      <rect x="2" y="2" width="21" height="46" rx="3" fill="#E8DCD4" opacity="0.4"/>
    </g>
    <g transform="translate(240, 30)">
      <rect x="0" y="0" width="25" height="50" rx="4" fill="#376F6B" opacity="0.3"/>
      <rect x="2" y="2" width="21" height="46" rx="3" fill="#D5C6BC" opacity="0.4"/>
    </g>
    <g transform="translate(280, 30)">
      <rect x="0" y="0" width="25" height="50" rx="4" fill="#57BBB6" opacity="0.3"/>
      <rect x="2" y="2" width="21" height="46" rx="3" fill="#E8DCD4" opacity="0.4"/>
    </g>
    <g transform="translate(320, 30)">
      <rect x="0" y="0" width="25" height="50" rx="4" fill="#376F6B" opacity="0.3"/>
      <rect x="2" y="2" width="21" height="46" rx="3" fill="#D5C6BC" opacity="0.4"/>
    </g>
    
    <!-- Product Bottles Row 2 -->
    <g transform="translate(40, 110)">
      <rect x="0" y="0" width="25" height="50" rx="4" fill="#376F6B" opacity="0.3"/>
      <rect x="2" y="2" width="21" height="46" rx="3" fill="#D5C6BC" opacity="0.4"/>
    </g>
    <g transform="translate(80, 110)">
      <rect x="0" y="0" width="25" height="50" rx="4" fill="#57BBB6" opacity="0.3"/>
      <rect x="2" y="2" width="21" height="46" rx="3" fill="#E8DCD4" opacity="0.4"/>
    </g>
    <g transform="translate(120, 110)">
      <rect x="0" y="0" width="25" height="50" rx="4" fill="#376F6B" opacity="0.3"/>
      <rect x="2" y="2" width="21" height="46" rx="3" fill="#D5C6BC" opacity="0.4"/>
    </g>
    <g transform="translate(160, 110)">
      <rect x="0" y="0" width="25" height="50" rx="4" fill="#57BBB6" opacity="0.3"/>
      <rect x="2" y="2" width="21" height="46" rx="3" fill="#E8DCD4" opacity="0.4"/>
    </g>
    <g transform="translate(200, 110)">
      <rect x="0" y="0" width="25" height="50" rx="4" fill="#376F6B" opacity="0.3"/>
      <rect x="2" y="2" width="21" height="46" rx="3" fill="#D5C6BC" opacity="0.4"/>
    </g>
    <g transform="translate(240, 110)">
      <rect x="0" y="0" width="25" height="50" rx="4" fill="#57BBB6" opacity="0.3"/>
      <rect x="2" y="2" width="21" height="46" rx="3" fill="#E8DCD4" opacity="0.4"/>
    </g>
    <g transform="translate(280, 110)">
      <rect x="0" y="0" width="25" height="50" rx="4" fill="#376F6B" opacity="0.3"/>
      <rect x="2" y="2" width="21" height="46" rx="3" fill="#D5C6BC" opacity="0.4"/>
    </g>
    <g transform="translate(320, 110)">
      <rect x="0" y="0" width="25" height="50" rx="4" fill="#57BBB6" opacity="0.3"/>
      <rect x="2" y="2" width="21" height="46" rx="3" fill="#E8DCD4" opacity="0.4"/>
    </g>
    
    <!-- Product Bottles Row 3 -->
    <g transform="translate(40, 190)">
      <rect x="0" y="0" width="25" height="50" rx="4" fill="#57BBB6" opacity="0.3"/>
      <rect x="2" y="2" width="21" height="46" rx="3" fill="#E8DCD4" opacity="0.4"/>
    </g>
    <g transform="translate(80, 190)">
      <rect x="0" y="0" width="25" height="50" rx="4" fill="#376F6B" opacity="0.3"/>
      <rect x="2" y="2" width="21" height="46" rx="3" fill="#D5C6BC" opacity="0.4"/>
    </g>
    <g transform="translate(120, 190)">
      <rect x="0" y="0" width="25" height="50" rx="4" fill="#57BBB6" opacity="0.3"/>
      <rect x="2" y="2" width="21" height="46" rx="3" fill="#E8DCD4" opacity="0.4"/>
    </g>
    <g transform="translate(160, 190)">
      <rect x="0" y="0" width="25" height="50" rx="4" fill="#376F6B" opacity="0.3"/>
      <rect x="2" y="2" width="21" height="46" rx="3" fill="#D5C6BC" opacity="0.4"/>
    </g>
    <g transform="translate(200, 190)">
      <rect x="0" y="0" width="25" height="50" rx="4" fill="#57BBB6" opacity="0.3"/>
      <rect x="2" y="2" width="21" height="46" rx="3" fill="#E8DCD4" opacity="0.4"/>
    </g>
    <g transform="translate(240, 190)">
      <rect x="0" y="0" width="25" height="50" rx="4" fill="#376F6B" opacity="0.3"/>
      <rect x="2" y="2" width="21" height="46" rx="3" fill="#D5C6BC" opacity="0.4"/>
    </g>
    <g transform="translate(280, 190)">
      <rect x="0" y="0" width="25" height="50" rx="4" fill="#57BBB6" opacity="0.3"/>
      <rect x="2" y="2" width="21" height="46" rx="3" fill="#E8DCD4" opacity="0.4"/>
    </g>
    <g transform="translate(320, 190)">
      <rect x="0" y="0" width="25" height="50" rx="4" fill="#376F6B" opacity="0.3"/>
      <rect x="2" y="2" width="21" height="46" rx="3" fill="#D5C6BC" opacity="0.4"/>
    </g>
  </g>
  
  <!-- Shopping Cart -->
  <g transform="translate(700, 400)">
    <!-- Cart Body -->
    <rect x="0" y="0" width="80" height="60" rx="8" fill="#57BBB6" opacity="0.3"/>
    <rect x="5" y="5" width="70" height="50" rx="6" fill="#E8DCD4" opacity="0.4"/>
    
    <!-- Cart Wheels -->
    <circle cx="20" cy="70" r="12" fill="#376F6B" opacity="0.3"/>
    <circle cx="60" cy="70" r="12" fill="#376F6B" opacity="0.3"/>
    
    <!-- Cart Handle -->
    <rect x="70" y="20" width="8" height="30" rx="4" fill="#D5C6BC" opacity="0.4"/>
    
    <!-- Products in Cart -->
    <g transform="translate(15, 15)">
      <rect x="0" y="0" width="15" height="20" rx="3" fill="#57BBB6" opacity="0.4"/>
    </g>
    <g transform="translate(35, 15)">
      <rect x="0" y="0" width="15" height="20" rx="3" fill="#376F6B" opacity="0.4"/>
    </g>
    <g transform="translate(55, 15)">
      <rect x="0" y="0" width="15" height="20" rx="3" fill="#57BBB6" opacity="0.4"/>
    </g>
  </g>
  
  <!-- Health Products Display -->
  <g transform="translate(800, 200)">
    <!-- Vitamins -->
    <g transform="translate(0, 0)">
      <rect x="0" y="0" width="30" height="40" rx="4" fill="#57BBB6" opacity="0.3"/>
      <rect x="2" y="2" width="26" height="36" rx="3" fill="#E8DCD4" opacity="0.4"/>
      <circle cx="15" cy="20" r="8" fill="#376F6B" opacity="0.2"/>
    </g>
    
    <g transform="translate(40, 0)">
      <rect x="0" y="0" width="30" height="40" rx="4" fill="#376F6B" opacity="0.3"/>
      <rect x="2" y="2" width="26" height="36" rx="3" fill="#D5C6BC" opacity="0.4"/>
      <circle cx="15" cy="20" r="8" fill="#57BBB6" opacity="0.2"/>
    </g>
    
    <g transform="translate(80, 0)">
      <rect x="0" y="0" width="30" height="40" rx="4" fill="#57BBB6" opacity="0.3"/>
      <rect x="2" y="2" width="26" height="36" rx="3" fill="#E8DCD4" opacity="0.4"/>
      <circle cx="15" cy="20" r="8" fill="#376F6B" opacity="0.2"/>
    </g>
  </g>
  
  <!-- OTC Medications -->
  <g transform="translate(800, 300)">
    <!-- Pain Relief -->
    <g transform="translate(0, 0)">
      <rect x="0" y="0" width="25" height="35" rx="3" fill="#376F6B" opacity="0.3"/>
      <rect x="2" y="2" width="21" height="31" rx="2" fill="#D5C6BC" opacity="0.4"/>
      <rect x="8" y="8" width="9" height="19" fill="#57BBB6" opacity="0.2"/>
    </g>
    
    <g transform="translate(35, 0)">
      <rect x="0" y="0" width="25" height="35" rx="3" fill="#57BBB6" opacity="0.3"/>
      <rect x="2" y="2" width="21" height="31" rx="2" fill="#E8DCD4" opacity="0.4"/>
      <rect x="8" y="8" width="9" height="19" fill="#376F6B" opacity="0.2"/>
    </g>
    
    <g transform="translate(70, 0)">
      <rect x="0" y="0" width="25" height="35" rx="3" fill="#376F6B" opacity="0.3"/>
      <rect x="2" y="2" width="21" height="31" rx="2" fill="#D5C6BC" opacity="0.4"/>
      <rect x="8" y="8" width="9" height="19" fill="#57BBB6" opacity="0.2"/>
    </g>
  </g>
  
  <!-- Shopping Experience Elements -->
  <g transform="translate(1000, 350)">
    <!-- Price Tags -->
    <g transform="translate(0, 0)">
      <path d="M0 0 L20 0 L25 10 L20 20 L0 20 L5 10 Z" fill="#57BBB6" opacity="0.3"/>
      <circle cx="5" cy="10" r="2" fill="#E8DCD4" opacity="0.4"/>
    </g>
    
    <g transform="translate(40, 0)">
      <path d="M0 0 L20 0 L25 10 L20 20 L0 20 L5 10 Z" fill="#376F6B" opacity="0.3"/>
      <circle cx="5" cy="10" r="2" fill="#D5C6BC" opacity="0.4"/>
    </g>
    
    <g transform="translate(80, 0)">
      <path d="M0 0 L20 0 L25 10 L20 20 L0 20 L5 10 Z" fill="#57BBB6" opacity="0.3"/>
      <circle cx="5" cy="10" r="2" fill="#E8DCD4" opacity="0.4"/>
    </g>
  </g>
  
  <!-- Customer Service -->
  <g transform="translate(1000, 500)">
    <!-- Service Counter -->
    <rect x="0" y="0" width="120" height="80" rx="8" fill="#D5C6BC" opacity="0.3"/>
    <rect x="5" y="5" width="110" height="70" rx="6" fill="#E8DCD4" opacity="0.4"/>
    
    <!-- Computer Screen -->
    <rect x="20" y="15" width="40" height="30" rx="3" fill="#57BBB6" opacity="0.3"/>
    <rect x="22" y="17" width="36" height="26" rx="2" fill="#376F6B" opacity="0.2"/>
    
    <!-- Phone -->
    <rect x="70" y="20" width="25" height="40" rx="3" fill="#57BBB6" opacity="0.3"/>
    <rect x="72" y="22" width="21" height="36" rx="2" fill="#E8DCD4" opacity="0.4"/>
  </g>
  
  <!-- Abstract Shopping Elements -->
  <g transform="translate(150, 550)">
    <!-- Shopping Bag -->
    <path d="M0 0 L30 0 L35 20 L35 60 L0 60 Z" fill="#57BBB6" opacity="0.2"/>
    <rect x="5" y="5" width="25" height="50" fill="#E8DCD4" opacity="0.3"/>
    <rect x="10" y="15" width="15" height="25" fill="#376F6B" opacity="0.2"/>
  </g>
  
  <!-- Decorative Elements -->
  <g transform="translate(100, 100)">
    <!-- Star Rating -->
    <path d="M0 -8 L3 -3 L8 -3 L4 2 L6 8 L0 5 L-6 8 L-4 2 L-8 -3 L-3 -3 Z" fill="#57BBB6" opacity="0.1"/>
  </g>
  
  <g transform="translate(1100, 100)">
    <!-- Sale Badge -->
    <circle cx="0" cy="0" r="20" fill="#376F6B" opacity="0.1"/>
    <text x="0" y="5" text-anchor="middle" fill="#376F6B" opacity="0.3" font-size="12">SALE</text>
  </g>
  
  <!-- Connection Lines -->
  <g transform="translate(600, 500)">
    <line x1="0" y1="0" x2="100" y2="0" stroke="#57BBB6" stroke-width="1" opacity="0.1"/>
  </g>
  
  <!-- Subtle Background Elements -->
  <g transform="translate(100, 200)">
    <circle cx="0" cy="0" r="25" fill="#57BBB6" opacity="0.03"/>
  </g>
  
  <g transform="translate(1100, 200)">
    <circle cx="0" cy="0" r="30" fill="#D5C6BC" opacity="0.03"/>
  </g>
  
  <g transform="translate(100, 600)">
    <circle cx="0" cy="0" r="20" fill="#376F6B" opacity="0.03"/>
  </g>
  
  <g transform="translate(1100, 600)">
    <circle cx="0" cy="0" r="35" fill="#E8DCD4" opacity="0.03"/>
  </g>
</svg>
