<svg version="1.2" xmlns="http://www.w3.org/2000/svg" viewBox="0 0 732 329" width="732" height="329">
	<title>pharmacy logo-my meds (1)</title>
	<defs>
		<linearGradient id="g1" x2="1" gradientUnits="userSpaceOnUse" gradientTransform="matrix(6.332,-339.132,314.535,5.873,24.404,350.482)">
			<stop offset="0" stop-color="#54bbb6"/>
			<stop offset=".366" stop-color="#2c8f88"/>
		</linearGradient>
	</defs>
	<style>
		tspan { white-space:pre } 
		.t0 { font-size: 46px;fill: #57c4bb;font-family: "Pirulen Rg" } 
		.t1 { font-size: 80px;fill: #31968b;font-family: "Londone" } 
		.s2 { fill: url(#g1) } 
	</style>
	<g id="Layer 1">
		<text id="my meds
" style="transform: matrix(1,0,0,1,168.855,197.535)" >
			<tspan x="0" y="0" class="t0">my meds
</tspan>
		</text>
		<text id="PHARMACY
" style="transform: matrix(1,0,0,1,259.097,278.847)" >
			<tspan x="0" y="0" class="t1" dx="0 6 6 6 6 6 6 6 6" >PHARMACY
</tspan>
		</text>
		<path id="&lt;Compound Path&gt;" fill-rule="evenodd" class="s2" d="m145.4 112.9c0-0.5 0.1-1 0.1-1.5q0.2-22.2 0.4-44.3c0.1-5.5 0.8-10.8 2.6-16 3.1-9.2 8.7-16.4 16.5-22 6-4.1 12.6-6.9 19.5-8.7 6.1-1.6 12.3-2.1 18.5-1.6 5.3 0.5 10.6 1.4 15.6 3.2 7.9 2.8 14.8 7.2 20.4 13.5 6.1 6.9 10.5 14.8 12.8 23.8 1 3.9 1.4 8 1.5 12 0.1 7.8 0.1 15.6 0.2 23.3q0.1 7.9 0.2 15.8 0.1 0.9 0 1.7c0.8 0.5 1.6 0.4 2.2 0.4q7 0 13.9 0c16.8 0.1 35.4 0.1 52.2 0.1 0.8 0 1.7-0.1 2.4 0.3 0.3 1.3 0.3 12.3 0.1 14.3-0.4 0.5-1 0.3-1.5 0.3-5.6 0.1-12.8 0.1-18.4 0.2q-26.9 0.2-53.7 0.5-5.7 0.1-11.3 0.1c-0.5 0-0.9 0-1.4 0 0-0.4-0.2-0.7-0.2-1.1 0-0.5 0-1 0-1.6q0-25.4 0-50.9c0-7.6-1.8-14.7-5.8-21.1-6.1-10.1-15-16.2-26.6-18.4-4.3-0.9-8.6-0.7-13 0-4.4 0.7-8.6 1.8-12.6 3.9q-16.6 8.4-20.2 26.6c-0.5 2.5-0.7 5-0.7 7.5q0 25.8 0 51.7c0 0.7 0 1.4 0 2.2-0.5 0-0.9 0.1-1.3 0.1q-4.4 0-8.8 0-21.4 0-42.7 0c-4 0-8 0.4-11.9 1.1-14.7 2.4-23.7 13.4-27.1 23.7-1.6 4.9-2.3 10-1.9 15.2 0.2 3.2 0.5 6.5 1.3 9.7 2.6 9.9 8.4 17.3 17.2 22.4q7.5 4.3 16.1 5.1c1.8 0.2 3.6 0.3 5.4 0.3q18.4 0 36.9 0c0.6 0 1.2 0 1.9 0 0.1-0.5 0.2-0.9 0.2-1.2q0-4.3 0-8.7 0-11.3 0-22.7c0-3.8 2.4-6.3 6.2-6.5 4.7-0.2 8.3 3.2 8.4 7.8 0.1 1.5 0 3 0 4.5q0 12.5 0 24.9c0 0.6 0.1 1.2 0.1 1.9 0.5 0.1 1 0.2 1.4 0.2q9.9 0.1 19.7 0.2c5.8 0 11.6 0 17.4 0.1 9.9 0.1 19.2 2.3 27.9 7 8.3 4.6 15 10.8 19.8 19 3.2 5.5 5.3 11.5 6.3 17.8q1.2 7 0.7 14.1c-0.6 7.6-2.3 15-5.8 21.8-4.4 8.6-11 15.1-19.4 19.8q-9.4 5.2-20 6.6c-12.6 1.7-24.6-0.3-35.8-6.4-13.3-7.2-21.3-18.4-24.3-33.1-0.5-2.6-0.8-5.2-0.8-7.9q-0.5-15.4-1-30.8-0.1-5.1-0.3-10.2c0-0.6-0.1-1.3-0.1-2-0.8 0-1.4-0.1-2.1-0.1q-19.2 0-38.5 0c-6.9 0-13.6-1.1-20-3.7-9.7-3.8-17.3-10.3-22.9-19.2q-6.5-10.1-8.6-21.9c-0.9-5.2-1.1-10.4-0.6-15.7 0.4-4.5 1.1-8.9 2.3-13.2 1.5-5.8 3.9-11.2 7.6-15.9q9-11.4 23-15.4c6.4-1.9 13-2.7 19.6-2.7q19.3 0 38.6 0.1c0.7 0 1.4 0.1 2.2-0.3zm13.6 108c0 0.9 0 1.5 0 2.2q0 5.8 0 11.6 0 10.2 0 20.3c0 2.4 0 4.8 0.4 7.2 1.2 8.5 4.5 16.1 10.2 22.7 3.9 4.6 8.6 8.2 14.3 10.5 8 3.3 16.2 3.6 24.6 1.5 13.4-3.5 24.2-14.1 28.1-27.4 1.6-5.2 1.9-10.6 1.5-16-0.3-4.9-1.5-9.5-3.9-13.8-6.8-12.2-17.4-18.2-31.1-18.9q-21.4 0-42.7 0c-0.4 0-0.8 0.1-1.4 0.1z"/>
	</g>
</svg>